<svg width="2406" height="2406" viewBox="0 0 2406 2406" fill="none" xmlns="http://www.w3.org/2000/svg">
<rect width="2406" height="2406" fill="black"/>
<g clip-path="url(#clip0_54_15)">
<path fill-rule="evenodd" clip-rule="evenodd" d="M1769 792.453C1769 855.694 1754.49 913.751 1725.46 966.624C1696.43 1018.46 1651.86 1060.45 1591.74 1092.59C1531.61 1124.73 1456.97 1140.8 1367.82 1140.8H1022.63V1197.08C1060.12 1186.58 1085.72 1185.6 1091.73 1196.57C1099.64 1211 1071.93 1242.85 1022.63 1280.35V1416.23C1060.12 1405.72 1085.72 1404.74 1091.73 1415.71C1099.64 1430.14 1071.93 1461.99 1022.63 1499.49V1625.61C1046.28 1621.3 1062.5 1623 1067.32 1631.79C1074.76 1645.36 1053.34 1672.74 1014.32 1703.75C992.197 1737.36 968.593 1779.06 946.178 1825.31C921.604 1876.04 902.219 1924.47 889.49 1965H888.198C875.469 1924.47 856.084 1876.04 831.511 1825.31C828.877 1819.88 826.382 1814.83 824.015 1810.16C771.345 1829.69 731.882 1834.66 723.877 1820.06C711.553 1797.57 778.447 1737.2 873.286 1685.21C895.851 1672.84 917.964 1662.06 938.73 1653.11C904.716 1655.58 845.251 1677.13 782.071 1711.76C770.567 1718.07 759.495 1724.5 748.956 1730.98V1648.09C694.801 1667.25 656.311 1672.34 648.752 1658.55C635.391 1634.17 723.725 1560.05 846.051 1492.99C879.482 1474.66 911.994 1458.76 941.863 1445.83C911.394 1440.99 835.988 1465.69 748.956 1509.43V1428.94C694.801 1448.11 656.311 1453.19 648.752 1439.4C635.391 1415.02 723.725 1340.9 846.051 1273.84C879.48 1255.52 911.988 1239.62 941.855 1226.68C911.382 1221.85 835.98 1246.55 748.956 1290.29V1209.81C694.801 1228.97 656.311 1234.05 648.752 1220.26C635.391 1195.88 723.725 1121.76 846.051 1054.7C879.482 1036.38 911.993 1020.48 941.861 1007.54C911.392 1002.71 835.986 1027.41 748.956 1071.15V990.664C694.801 1009.82 656.311 1014.91 648.752 1001.12C639.307 983.885 680.681 941.795 748.956 894.915C777.264 875.477 810.197 855.217 846.051 835.563C879.482 817.236 911.993 801.335 941.861 788.399C911.392 783.57 835.986 808.264 748.956 852.004V584.069C748.956 475.212 637 441 637 441H748.956H1022.63H1367.82C1454.9 441 1528.5 456.033 1588.63 486.098C1648.75 516.163 1693.85 557.633 1723.91 610.506C1753.97 663.38 1769 724.029 1769 792.453ZM1022.63 655.604H1347.61C1398.41 655.604 1436.24 667.527 1461.12 691.371C1486 715.216 1498.44 748.91 1498.44 792.453C1498.44 835.996 1486 869.69 1461.12 893.535C1436.24 917.379 1398.41 929.302 1347.61 929.302H1022.63V842.065C1071.93 804.567 1099.64 772.715 1091.73 758.287C1085.72 747.313 1060.12 748.291 1022.63 758.801V655.604Z" fill="#BCBCBC"/>
</g>
<defs>
<clipPath id="clip0_54_15">
<rect width="1132" height="1524" fill="white" transform="translate(637 441)"/>
</clipPath>
</defs>
</svg>
