<svg width="913" height="245" viewBox="0 0 913 245" fill="none" xmlns="http://www.w3.org/2000/svg">
<g clip-path="url(#clip0_34_28)">
<path fill-rule="evenodd" clip-rule="evenodd" d="M182 56.5C182 66.6667 179.667 76 175 84.5C170.333 92.8333 163.167 99.5833 153.5 104.75C143.833 109.917 131.833 112.5 117.5 112.5H62V121.549C68.0278 119.86 72.1436 119.703 73.1106 121.467C74.3819 123.786 69.9262 128.907 62 134.935V156.779C68.0278 155.089 72.1436 154.932 73.1106 156.696C74.3819 159.015 69.9262 164.136 62 170.164V190.439C65.8022 189.746 68.4111 190.019 69.1861 191.433C70.3821 193.615 66.9373 198.016 60.6648 203.001C57.1076 208.404 53.3126 215.108 49.7088 222.544C45.7579 230.698 42.6412 238.485 40.5946 245H40.387C38.3404 238.485 35.2238 230.698 31.2729 222.544C30.8495 221.67 30.4483 220.859 30.0678 220.107C21.5997 223.247 15.2549 224.047 13.9678 221.699C11.9865 218.084 22.7414 208.378 37.9895 200.02C41.6174 198.032 45.1727 196.299 48.5114 194.861C43.0426 195.258 33.482 198.721 23.3241 204.289C21.4745 205.303 19.6944 206.337 18 207.378V194.053C9.2931 197.134 3.10471 197.951 1.88941 195.734C-0.25865 191.815 13.9434 179.899 33.6106 169.119C38.9857 166.173 44.2128 163.616 49.0151 161.537C44.1164 160.76 31.9927 164.73 18 171.762V158.823C9.2931 161.904 3.10471 162.721 1.88941 160.504C-0.25865 156.585 13.9434 144.669 33.6106 133.889C38.9853 130.943 44.2119 128.387 49.0138 126.307C44.1144 125.531 31.9915 129.501 18 136.533V123.594C9.2931 126.675 3.10471 127.492 1.88941 125.275C-0.25865 121.356 13.9434 109.44 33.6106 98.6599C38.9857 95.7137 44.2126 93.1573 49.0148 91.0777C44.116 90.3014 31.9924 94.2713 18 101.303V88.3646C9.2931 91.4448 3.10471 92.2624 1.88941 90.0452C0.370937 87.2748 7.02284 80.5084 18 72.9719C22.5513 69.8471 27.8462 66.59 33.6106 63.4304C38.9856 60.4842 44.2126 57.9278 49.0148 55.8482C44.116 55.0719 31.9925 59.0418 18 66.0735V23C18 5.5 0 0 0 0H18H62H117.5C131.5 0 143.333 2.41667 153 7.25C162.667 12.0833 169.917 18.75 174.75 27.25C179.583 35.75 182 45.5 182 56.5ZM62 34.5H114.25C122.417 34.5 128.5 36.4167 132.5 40.25C136.5 44.0833 138.5 49.5 138.5 56.5C138.5 63.5 136.5 68.9167 132.5 72.75C128.5 76.5833 122.417 78.5 114.25 78.5H62V64.4757C69.9262 58.4474 74.3819 53.3269 73.1106 51.0075C72.1436 49.2433 68.0278 49.4005 62 51.0901V34.5Z" fill="#BCBCBC"/>
</g>
<path d="M249.3 94.6C251.5 94.4667 253.067 94 254 93.2C255 92.4 255.633 91.2 255.9 89.6C256.167 88 256.3 85.9667 256.3 83.5V41.9C256.3 40.4333 256.333 39.0333 256.4 37.7C256.467 36.3 256.533 35.1 256.6 34.1C255.467 34.1667 254.233 34.2333 252.9 34.3C251.567 34.3667 250.367 34.4333 249.3 34.5V29C253.233 28.9333 257.233 28.9 261.3 28.9C265.367 28.8333 269.5 28.8 273.7 28.8C279.967 28.8 285.267 29.5667 289.6 31.1C294 32.5667 297.367 34.8333 299.7 37.9C302.1 40.9 303.333 44.7 303.4 49.3C303.467 51.9 303 54.6 302 57.4C301 60.1333 299.3 62.7 296.9 65.1C294.5 67.4333 291.233 69.3333 287.1 70.8C283.033 72.2667 277.9 73 271.7 73C271.033 73.0667 270.267 73.1 269.4 73.1C268.6 73.1 267.767 73.0667 266.9 73V85.6C266.9 87.4 266.867 89.0333 266.8 90.5C266.8 91.9 266.733 93.0333 266.6 93.9C267.533 93.8333 268.533 93.7667 269.6 93.7C270.667 93.6333 271.7 93.6 272.7 93.6C273.767 93.5333 274.733 93.4667 275.6 93.4V99H249.3V94.6ZM266.9 67.7C268.033 67.8333 269 67.9333 269.8 68C270.667 68 271.667 68 272.8 68C276.533 68 279.833 67.3 282.7 65.9C285.567 64.5 287.8 62.4667 289.4 59.8C291 57.1333 291.8 53.9667 291.8 50.3C291.8 47.1 291.3 44.4333 290.3 42.3C289.367 40.1 288.033 38.4 286.3 37.2C284.633 35.9333 282.7 35.0333 280.5 34.5C278.3 33.9667 275.967 33.7 273.5 33.7C271.5 33.7 270.033 34.1 269.1 34.9C268.167 35.7 267.567 36.8667 267.3 38.4C267.033 39.9333 266.9 41.9 266.9 44.3V67.7ZM309.225 100.6C307.425 100.6 305.892 99.9333 304.625 98.6C303.425 97.2667 302.825 95.6333 302.825 93.7C302.825 91.8333 303.458 90.2333 304.725 88.9C306.058 87.5 307.558 86.8 309.225 86.8C311.025 86.8 312.525 87.5 313.725 88.9C314.925 90.2333 315.525 91.8333 315.525 93.7C315.525 95.6333 314.892 97.2667 313.625 98.6C312.425 99.9333 310.958 100.6 309.225 100.6ZM407.013 51.3C406.28 45.3 404.213 40.7 400.813 37.5C397.413 34.2333 392.98 32.5667 387.513 32.5C384.047 32.5 380.847 33.2667 377.913 34.8C374.98 36.3333 372.447 38.5 370.313 41.3C368.18 44.0333 366.513 47.3 365.313 51.1C364.18 54.8333 363.613 58.9333 363.613 63.4C363.613 69.4667 364.68 74.8667 366.813 79.6C368.947 84.2667 371.88 87.9 375.613 90.5C379.413 93.1 383.713 94.4 388.513 94.4C392.78 94.4 396.98 93.4 401.113 91.4C405.313 89.3333 408.78 86.4333 411.513 82.7L414.813 85.5C411.813 89.6333 408.613 92.8 405.213 95C401.813 97.2 398.413 98.6667 395.013 99.4C391.68 100.2 388.647 100.6 385.913 100.6C380.913 100.6 376.313 99.7 372.113 97.9C367.913 96.1 364.28 93.6 361.213 90.4C358.213 87.1333 355.88 83.3667 354.213 79.1C352.613 74.7667 351.813 70.1 351.813 65.1C351.813 60.4333 352.547 55.8667 354.013 51.4C355.48 46.9333 357.647 42.9 360.513 39.3C363.38 35.6333 366.98 32.7333 371.313 30.6C375.713 28.4667 380.813 27.4 386.613 27.4C390.013 27.4 393.313 27.8667 396.513 28.8C399.78 29.7333 402.913 31.1667 405.913 33.1L405.413 28.1H411.613V51.3H407.013ZM456.745 100.6C450.411 100.6 444.978 99.5333 440.445 97.4C435.978 95.2667 432.345 92.4333 429.545 88.9C426.745 85.3 424.678 81.3333 423.345 77C422.011 72.6667 421.345 68.3333 421.345 64C421.345 59.8 422.045 55.5667 423.445 51.3C424.911 46.9667 427.078 43 429.945 39.4C432.878 35.8 436.511 32.9 440.845 30.7C445.245 28.5 450.378 27.4 456.245 27.4C462.378 27.4 467.645 28.5 472.045 30.7C476.511 32.9 480.178 35.8333 483.045 39.5C485.911 43.1 488.045 47.0333 489.445 51.3C490.911 55.5667 491.645 59.8 491.645 64C491.645 68.1333 490.911 72.3667 489.445 76.7C488.045 80.9667 485.878 84.9333 482.945 88.6C480.078 92.2 476.478 95.1 472.145 97.3C467.811 99.5 462.678 100.6 456.745 100.6ZM457.245 95.4C461.111 95.4 464.445 94.5333 467.245 92.8C470.111 91.0667 472.445 88.7667 474.245 85.9C476.111 82.9667 477.478 79.7667 478.345 76.3C479.211 72.7667 479.645 69.2667 479.645 65.8C479.645 61.5333 479.145 57.4333 478.145 53.5C477.145 49.5 475.611 45.9333 473.545 42.8C471.545 39.6 469.045 37.1 466.045 35.3C463.045 33.4333 459.578 32.5 455.645 32.5C451.778 32.5 448.411 33.4 445.545 35.2C442.678 37 440.345 39.3667 438.545 42.3C436.745 45.1667 435.378 48.3667 434.445 51.9C433.578 55.3667 433.145 58.8667 433.145 62.4C433.145 65.8667 433.611 69.5333 434.545 73.4C435.478 77.2667 436.911 80.8667 438.845 84.2C440.778 87.5333 443.245 90.2333 446.245 92.3C449.311 94.3667 452.978 95.4 457.245 95.4ZM537.474 100C534.741 93.7333 532.008 87.4667 529.274 81.2C526.541 74.9333 523.841 68.6333 521.174 62.3C520.374 60.4333 519.541 58.4 518.674 56.2C517.808 54 516.941 51.6667 516.074 49.2C515.208 46.7333 514.374 44.2333 513.574 41.7C513.574 43.4333 513.574 45.1 513.574 46.7C513.574 48.3 513.574 49.8333 513.574 51.3C513.508 53.3667 513.441 55.8 513.374 58.6C513.308 61.3333 513.208 64.2333 513.074 67.3C513.008 70.3667 512.941 73.4333 512.874 76.5C512.874 79.5 512.841 82.4 512.774 85.2C512.774 86.8 512.741 88.3667 512.674 89.9C512.608 91.4333 512.508 92.7667 512.374 93.9C513.574 93.7667 514.841 93.7 516.174 93.7C517.574 93.6333 518.808 93.5667 519.874 93.5V99H499.574V94.6C501.441 94.5333 502.874 94.1667 503.874 93.5C504.874 92.8333 505.541 91.8333 505.874 90.5C506.274 89.1667 506.508 87.5333 506.574 85.6L507.974 42.4C508.041 40.9333 508.108 39.4667 508.174 38C508.241 36.5333 508.308 35.2333 508.374 34.1C507.174 34.1667 505.908 34.2333 504.574 34.3C503.241 34.3 502.074 34.3333 501.074 34.4V29H518.574L535.074 68.4C535.874 70.2 536.674 72.1333 537.474 74.2C538.274 76.2 539.074 78.2 539.874 80.2C540.741 82.1333 541.508 83.9667 542.174 85.7H542.374C543.108 83.7 543.941 81.5 544.874 79.1C545.808 76.7 546.608 74.5667 547.274 72.7C550.141 65.5 553.041 58.3 555.974 51.1C558.974 43.9 561.908 36.5333 564.774 29H582.374V33.4C580.774 33.4 579.408 33.7 578.274 34.3C577.208 34.8333 576.408 35.8333 575.874 37.3C575.408 38.7667 575.241 40.8667 575.374 43.6L577.574 86.7C577.708 88.0333 577.741 89.3333 577.674 90.6C577.674 91.8667 577.641 92.9333 577.574 93.8C578.774 93.7333 580.041 93.7 581.374 93.7C582.774 93.6333 583.974 93.5667 584.974 93.5V99H560.774V94.6C562.708 94.5333 564.174 94.1333 565.174 93.4C566.241 92.6667 566.941 91.5333 567.274 90C567.608 88.4 567.708 86.3333 567.574 83.8L565.974 54.7C565.908 53.7 565.841 52.5333 565.774 51.2C565.708 49.8 565.608 48.3667 565.474 46.9C565.408 45.3667 565.341 43.9 565.274 42.5C565.074 42.9667 564.874 43.4667 564.674 44C564.474 44.4667 564.274 45 564.074 45.6L542.574 100H537.474ZM633.629 50.6C633.296 47.2 632.429 44.1333 631.029 41.4C629.629 38.6667 627.696 36.5 625.229 34.9C622.762 33.2333 619.696 32.4333 616.029 32.5C612.296 32.5 609.329 33.5333 607.129 35.6C604.929 37.6667 603.829 40.1667 603.829 43.1C603.829 45.7 604.562 47.9 606.029 49.7C607.496 51.4333 609.462 53 611.929 54.4C614.462 55.8 617.296 57.2 620.429 58.6C622.962 59.6667 625.529 60.8667 628.129 62.2C630.729 63.5333 633.096 65.0667 635.229 66.8C637.362 68.4667 639.062 70.5 640.329 72.9C641.596 75.2333 642.229 78 642.229 81.2C642.229 84.9333 641.262 88.2667 639.329 91.2C637.396 94.1333 634.629 96.4333 631.029 98.1C627.496 99.7667 623.196 100.6 618.129 100.6C615.262 100.6 612.229 100.167 609.029 99.3C605.896 98.4333 603.029 97.2 600.429 95.6L600.929 99.8H594.829L594.429 77.8H599.229C599.762 83.6 601.829 88 605.429 91C609.096 93.9333 613.462 95.4 618.529 95.4C621.062 95.4 623.362 94.9333 625.429 94C627.496 93.0667 629.129 91.7333 630.329 90C631.529 88.2667 632.129 86.2333 632.129 83.9C632.129 81.1667 631.296 78.8667 629.629 77C628.029 75.1333 625.962 73.5333 623.429 72.2C620.962 70.8667 618.362 69.6 615.629 68.4C612.896 67.2 610.229 65.9333 607.629 64.6C605.096 63.2667 602.796 61.7333 600.729 60C598.662 58.2667 597.029 56.2333 595.829 53.9C594.629 51.5 594.029 48.7 594.029 45.5C594.029 43.6333 594.362 41.6667 595.029 39.6C595.696 37.5333 596.829 35.5667 598.429 33.7C600.029 31.8333 602.196 30.3333 604.929 29.2C607.729 28 611.229 27.4 615.429 27.4C617.962 27.4 620.796 27.7667 623.929 28.5C627.129 29.2333 630.029 30.5333 632.629 32.4L632.229 28.2H638.229V50.6H633.629ZM703.844 50.6C703.777 46.8 703.344 43.6333 702.544 41.1C701.744 38.5667 700.41 36.6667 698.544 35.4C696.744 34.1333 694.244 33.5333 691.044 33.6H683.844L683.744 85.6C683.744 87.4 683.71 89.0333 683.644 90.5C683.644 91.9 683.577 93.0333 683.444 93.9C684.71 93.7667 686.077 93.7 687.544 93.7C689.077 93.6333 690.444 93.5667 691.644 93.5V99H666.244V94.6C668.444 94.4667 670.01 94 670.944 93.2C671.877 92.4 672.477 91.2 672.744 89.6C673.01 87.9333 673.144 85.9 673.144 83.5V33.7L664.744 33.8C660.677 33.8 657.71 35.1667 655.844 37.9C653.977 40.6333 653.044 44.8667 653.044 50.6H648.344L648.944 29H707.944L708.544 50.6H703.844ZM750.502 73.7C750.502 70.8333 750.068 68.7667 749.202 67.5C748.402 66.2333 747.168 65.4667 745.502 65.2C743.835 64.8667 741.768 64.7667 739.302 64.9L733.502 65.1V85.9C733.502 87.7 733.468 89.3 733.402 90.7C733.402 92.0333 733.335 93.1333 733.202 94L750.402 93.8C753.002 93.7333 755.335 93.2667 757.402 92.4C759.468 91.4667 761.102 89.9 762.302 87.7C763.502 85.5 764.102 82.5 764.102 78.7H768.502L767.902 99H715.902V94.6C718.102 94.4667 719.668 94 720.602 93.2C721.602 92.4 722.235 91.2 722.502 89.6C722.768 88 722.902 85.9667 722.902 83.5V41.9C722.902 40.4333 722.935 39.0333 723.002 37.7C723.068 36.3 723.135 35.1 723.202 34.1C722.068 34.1667 720.835 34.2333 719.502 34.3C718.168 34.3667 716.968 34.4333 715.902 34.5V29H764.702L765.202 47.1H760.802C760.802 43.3 760.168 40.4 758.902 38.4C757.702 36.4 756.102 35.0667 754.102 34.4C752.168 33.7333 750.068 33.4333 747.802 33.5L740.802 33.7C738.735 33.7 737.168 34.0667 736.102 34.8C735.035 35.4667 734.335 36.6 734.002 38.2C733.668 39.7333 733.502 41.8333 733.502 44.5V60.2H750.002L749.402 51.6H754.902V73.7H750.502ZM778.206 94.6C780.406 94.4667 781.973 94 782.906 93.2C783.906 92.4 784.54 91.2 784.806 89.6C785.073 88 785.206 85.9667 785.206 83.5V41.9C785.206 40.4333 785.24 39.0333 785.306 37.7C785.373 36.3 785.44 35.1 785.506 34.1C784.373 34.1667 783.14 34.2333 781.806 34.3C780.473 34.3667 779.273 34.4333 778.206 34.5V29L803.706 28.9C809.906 28.9 815.473 29.7 820.406 31.3C825.34 32.9 829.54 35.2333 833.006 38.3C836.473 41.3 839.106 44.9667 840.906 49.3C842.706 53.6333 843.606 58.4667 843.606 63.8C843.606 68.2667 842.84 72.6 841.306 76.8C839.773 81 837.406 84.7667 834.206 88.1C831.073 91.3667 827.106 94 822.306 96C817.506 98 811.84 99 805.306 99H778.206V94.6ZM795.806 85.7C795.806 87.5 795.773 89.1 795.706 90.5C795.706 91.9 795.64 93.0333 795.506 93.9C796.906 93.9 798.306 93.9333 799.706 94C801.106 94 802.34 94 803.406 94C804.54 94 805.34 94 805.806 94C809.94 94 813.606 93.2333 816.806 91.7C820.006 90.1667 822.706 88.0333 824.906 85.3C827.173 82.5667 828.873 79.4 830.006 75.8C831.206 72.2 831.806 68.3667 831.806 64.3C831.806 57.7667 830.74 52.2333 828.606 47.7C826.473 43.1667 823.24 39.7 818.906 37.3C814.64 34.9 809.306 33.6667 802.906 33.6C800.706 33.6 799.106 34 798.106 34.8C797.106 35.5333 796.473 36.7 796.206 38.3C795.94 39.9 795.806 41.9333 795.806 44.4V85.7ZM905.406 50.6C905.34 46.8 904.906 43.6333 904.106 41.1C903.306 38.5667 901.973 36.6667 900.106 35.4C898.306 34.1333 895.806 33.5333 892.606 33.6H885.406L885.306 85.6C885.306 87.4 885.273 89.0333 885.206 90.5C885.206 91.9 885.14 93.0333 885.006 93.9C886.273 93.7667 887.64 93.7 889.106 93.7C890.64 93.6333 892.006 93.5667 893.206 93.5V99H867.806V94.6C870.006 94.4667 871.573 94 872.506 93.2C873.44 92.4 874.04 91.2 874.306 89.6C874.573 87.9333 874.706 85.9 874.706 83.5V33.7L866.306 33.8C862.24 33.8 859.273 35.1667 857.406 37.9C855.54 40.6333 854.606 44.8667 854.606 50.6H849.906L850.506 29H909.506L910.106 50.6H905.406ZM249.3 220V215.6C251.5 215.533 253.067 215.1 254 214.3C255 213.433 255.633 212.167 255.9 210.5C256.167 208.833 256.3 206.733 256.3 204.2V163.4C256.3 161.6 256.333 160 256.4 158.6C256.467 157.133 256.533 155.967 256.6 155.1C255.467 155.167 254.233 155.233 252.9 155.3C251.567 155.367 250.367 155.433 249.3 155.5V150C253.3 149.933 257.3 149.9 261.3 149.9C265.3 149.833 269.4 149.8 273.6 149.8C281.467 149.8 287.633 151.233 292.1 154.1C296.567 156.9 298.7 161.3 298.5 167.3C298.433 169.367 297.8 171.433 296.6 173.5C295.467 175.5 293.733 177.3 291.4 178.9C289.067 180.433 286.167 181.567 282.7 182.3V182.5C289.833 182.833 295.167 184.7 298.7 188.1C302.233 191.433 304 195.5 304 200.3C304 204.433 302.933 208 300.8 211C298.733 213.933 295.9 216.167 292.3 217.7C288.767 219.233 284.7 220 280.1 220H249.3ZM266.6 215C267.733 215 268.967 215.033 270.3 215.1C271.633 215.1 272.9 215.1 274.1 215.1C275.367 215.1 276.3 215.1 276.9 215.1C281.7 215.033 285.467 213.733 288.2 211.2C290.933 208.667 292.3 205.133 292.3 200.6C292.3 196.867 291.533 193.967 290 191.9C288.533 189.767 286.6 188.267 284.2 187.4C281.8 186.533 279.233 186.1 276.5 186.1C274.633 186.1 272.933 186.133 271.4 186.2C269.933 186.2 268.433 186.233 266.9 186.3V206.8C266.9 208.6 266.867 210.2 266.8 211.6C266.8 213 266.733 214.133 266.6 215ZM266.9 181.4L273.5 181.2C276.967 181.133 279.7 180.4 281.7 179C283.767 177.6 285.233 175.8 286.1 173.6C286.967 171.4 287.367 169.1 287.3 166.7C287.3 163.367 286.6 160.833 285.2 159.1C283.8 157.367 282.067 156.167 280 155.5C277.933 154.833 275.9 154.5 273.9 154.5C272.033 154.5 270.6 154.767 269.6 155.3C268.6 155.833 267.9 156.767 267.5 158.1C267.1 159.367 266.9 161.267 266.9 163.8V181.4ZM326.233 220V215.6C328.433 215.467 329.999 215 330.933 214.2C331.866 213.4 332.466 212.2 332.733 210.6C332.999 208.933 333.133 206.9 333.133 204.5L333.233 194L315.433 166C314.033 163.667 312.899 161.6 312.033 159.8C311.233 158 310.766 156.5 310.633 155.3C309.566 155.367 308.566 155.4 307.633 155.4C306.699 155.4 305.766 155.433 304.833 155.5V150H331.833V154.4C329.166 154.333 327.199 154.7 325.933 155.5C324.733 156.3 324.199 157.467 324.333 159C324.466 160.467 325.133 162.2 326.333 164.2L334.233 176.8C334.766 177.6 335.366 178.533 336.033 179.6C336.699 180.667 337.366 181.767 338.033 182.9C338.766 183.967 339.433 185.067 340.033 186.2H340.233C340.833 184.933 341.499 183.6 342.233 182.2C343.033 180.733 343.833 179.133 344.633 177.4L352.033 163.3C352.366 162.633 352.799 161.8 353.333 160.8C353.866 159.8 354.433 158.8 355.033 157.8C355.699 156.733 356.366 155.867 357.033 155.2C355.833 155.267 354.499 155.333 353.033 155.4C351.633 155.4 350.366 155.433 349.233 155.5V150H370.133V154.4C367.199 154.667 364.733 155.767 362.733 157.7C360.799 159.567 358.733 162.533 356.533 166.6C354.333 170.8 352.166 174.933 350.033 179C347.899 183 345.833 186.933 343.833 190.8C343.833 191.867 343.799 193.233 343.733 194.9C343.733 196.567 343.733 198.233 343.733 199.9C343.733 201.567 343.733 203.033 343.733 204.3C343.733 205.5 343.733 206.267 343.733 206.6C343.733 208.4 343.699 210.033 343.633 211.5C343.633 212.9 343.566 214.033 343.433 214.9C344.766 214.767 346.166 214.7 347.633 214.7C349.166 214.633 350.499 214.567 351.633 214.5V220H326.233ZM405.933 221.6C399.133 221.6 393.166 220.133 388.033 217.2C382.899 214.267 378.933 210.167 376.133 204.9C373.333 199.567 371.933 193.367 371.933 186.3C371.933 181.633 372.633 177.067 374.033 172.6C375.499 168.133 377.666 164.067 380.533 160.4C383.466 156.733 387.099 153.833 391.433 151.7C395.833 149.5 400.933 148.4 406.733 148.4C408.933 148.4 411.233 148.6 413.633 149C416.033 149.4 418.366 150 420.633 150.8C422.966 151.6 425.066 152.567 426.933 153.7L426.533 149.1H432.733V172.1H428.133C427.799 168.1 426.666 164.733 424.733 162C422.866 159.2 420.433 157.1 417.433 155.7C414.499 154.233 411.233 153.5 407.633 153.5C404.099 153.5 400.866 154.3 397.933 155.9C395.066 157.433 392.566 159.6 390.433 162.4C388.299 165.133 386.633 168.367 385.433 172.1C384.299 175.833 383.733 179.833 383.733 184.1C383.733 190.233 384.733 195.7 386.733 200.5C388.799 205.233 391.699 208.967 395.433 211.7C399.166 214.433 403.533 215.8 408.533 215.8C410.133 215.8 411.866 215.667 413.733 215.4C415.666 215.067 417.566 214.6 419.433 214C421.366 213.333 423.099 212.5 424.633 211.5V200.3C424.633 198.633 424.633 197 424.633 195.4C424.699 193.733 424.733 192.2 424.733 190.8C423.666 190.867 422.466 190.933 421.133 191C419.799 191.067 418.633 191.133 417.633 191.2V185.7H441.533V190.1C439.933 190.1 438.633 190.467 437.633 191.2C436.699 191.933 435.999 192.867 435.533 194C435.133 195.067 434.866 196.233 434.733 197.5C434.599 198.7 434.533 199.833 434.533 200.9V216.5H431.933C430.533 216.5 428.899 216.733 427.033 217.2C425.166 217.6 423.066 218.233 420.733 219.1C418.666 219.833 416.299 220.433 413.633 220.9C410.966 221.367 408.399 221.6 405.933 221.6ZM481.03 221.6C474.23 221.6 468.264 220.133 463.13 217.2C457.997 214.267 454.03 210.167 451.23 204.9C448.43 199.567 447.03 193.367 447.03 186.3C447.03 181.633 447.73 177.067 449.13 172.6C450.597 168.133 452.764 164.067 455.63 160.4C458.564 156.733 462.197 153.833 466.53 151.7C470.93 149.5 476.03 148.4 481.83 148.4C484.03 148.4 486.33 148.6 488.73 149C491.13 149.4 493.464 150 495.73 150.8C498.064 151.6 500.164 152.567 502.03 153.7L501.63 149.1H507.83V172.1H503.23C502.897 168.1 501.764 164.733 499.83 162C497.964 159.2 495.53 157.1 492.53 155.7C489.597 154.233 486.33 153.5 482.73 153.5C479.197 153.5 475.964 154.3 473.03 155.9C470.164 157.433 467.664 159.6 465.53 162.4C463.397 165.133 461.73 168.367 460.53 172.1C459.397 175.833 458.83 179.833 458.83 184.1C458.83 190.233 459.83 195.7 461.83 200.5C463.897 205.233 466.797 208.967 470.53 211.7C474.264 214.433 478.63 215.8 483.63 215.8C485.23 215.8 486.964 215.667 488.83 215.4C490.764 215.067 492.664 214.6 494.53 214C496.464 213.333 498.197 212.5 499.73 211.5V200.3C499.73 198.633 499.73 197 499.73 195.4C499.797 193.733 499.83 192.2 499.83 190.8C498.764 190.867 497.564 190.933 496.23 191C494.897 191.067 493.73 191.133 492.73 191.2V185.7H516.63V190.1C515.03 190.1 513.73 190.467 512.73 191.2C511.797 191.933 511.097 192.867 510.63 194C510.23 195.067 509.964 196.233 509.83 197.5C509.697 198.7 509.63 199.833 509.63 200.9V216.5H507.03C505.63 216.5 503.997 216.733 502.13 217.2C500.264 217.6 498.164 218.233 495.83 219.1C493.764 219.833 491.397 220.433 488.73 220.9C486.064 221.367 483.497 221.6 481.03 221.6ZM544.579 220V215.5C546.579 215.5 548.112 214.967 549.179 213.9C550.246 212.833 551.146 211.4 551.879 209.6C552.612 207.733 553.412 205.667 554.279 203.4L574.479 148.1H578.479L600.379 204.2C600.912 205.467 601.512 207.2 602.179 209.4C602.846 211.533 603.146 213.367 603.079 214.9C604.212 214.767 605.312 214.7 606.379 214.7C607.512 214.633 608.579 214.567 609.579 214.5V220H585.279V215.6C587.612 215.533 589.146 215.033 589.879 214.1C590.679 213.1 590.979 211.9 590.779 210.5C590.646 209.1 590.312 207.7 589.779 206.3L586.779 198.2L562.279 198.8L559.379 207.5C558.979 208.833 558.546 210.1 558.079 211.3C557.612 212.5 557.146 213.667 556.679 214.8C557.879 214.667 559.146 214.6 560.479 214.6C561.879 214.533 563.112 214.467 564.179 214.4V220H544.579ZM564.079 193.4H585.079L578.779 176.5C577.979 174.3 577.212 172.133 576.479 170C575.746 167.8 575.079 165.7 574.479 163.7H574.379C573.846 165.367 573.246 167.2 572.579 169.2C571.912 171.2 571.146 173.367 570.279 175.7L564.079 193.4ZM614.144 220V215.6C616.344 215.533 617.91 215.1 618.844 214.3C619.844 213.433 620.477 212.167 620.744 210.5C621.01 208.833 621.144 206.733 621.144 204.2V163.4C621.144 161.6 621.177 160 621.244 158.6C621.31 157.133 621.377 155.967 621.444 155.1C620.31 155.167 619.077 155.233 617.744 155.3C616.41 155.367 615.21 155.433 614.144 155.5V150C618.144 149.933 622.144 149.9 626.144 149.9C630.144 149.833 634.244 149.8 638.444 149.8C646.31 149.8 652.477 151.233 656.944 154.1C661.41 156.9 663.544 161.3 663.344 167.3C663.277 169.367 662.644 171.433 661.444 173.5C660.31 175.5 658.577 177.3 656.244 178.9C653.91 180.433 651.01 181.567 647.544 182.3V182.5C654.677 182.833 660.01 184.7 663.544 188.1C667.077 191.433 668.844 195.5 668.844 200.3C668.844 204.433 667.777 208 665.644 211C663.577 213.933 660.744 216.167 657.144 217.7C653.61 219.233 649.544 220 644.944 220H614.144ZM631.444 215C632.577 215 633.81 215.033 635.144 215.1C636.477 215.1 637.744 215.1 638.944 215.1C640.21 215.1 641.144 215.1 641.744 215.1C646.544 215.033 650.31 213.733 653.044 211.2C655.777 208.667 657.144 205.133 657.144 200.6C657.144 196.867 656.377 193.967 654.844 191.9C653.377 189.767 651.444 188.267 649.044 187.4C646.644 186.533 644.077 186.1 641.344 186.1C639.477 186.1 637.777 186.133 636.244 186.2C634.777 186.2 633.277 186.233 631.744 186.3V206.8C631.744 208.6 631.71 210.2 631.644 211.6C631.644 213 631.577 214.133 631.444 215ZM631.744 181.4L638.344 181.2C641.81 181.133 644.544 180.4 646.544 179C648.61 177.6 650.077 175.8 650.944 173.6C651.81 171.4 652.21 169.1 652.144 166.7C652.144 163.367 651.444 160.833 650.044 159.1C648.644 157.367 646.91 156.167 644.844 155.5C642.777 154.833 640.744 154.5 638.744 154.5C636.877 154.5 635.444 154.767 634.444 155.3C633.444 155.833 632.744 156.767 632.344 158.1C631.944 159.367 631.744 161.267 631.744 163.8V181.4Z" fill="white"/>
<defs>
<clipPath id="clip0_34_28">
<rect width="182" height="245" fill="white"/>
</clipPath>
</defs>
</svg>
