<svg width="24" height="24" viewBox="0 0 24 24" fill="none" xmlns="http://www.w3.org/2000/svg">
<path fill-rule="evenodd" clip-rule="evenodd" d="M7.25736 18.1064C7.693 18.3363 8.1782 18.4563 8.67072 18.4561C10.3113 18.4561 11.6506 17.1511 11.7111 15.5246L11.7171 1.09996C11.7171 1.04475 11.7619 1 11.8171 1H15.2411C15.2963 1 15.3409 1.04471 15.3421 1.09989C15.347 1.33479 15.3683 1.56904 15.406 1.80095C15.416 1.86273 15.3688 1.91956 15.3062 1.91956H12.7735C12.7734 1.91956 12.7733 1.91968 12.7733 1.91982V1.91982C12.7733 1.91995 12.7734 1.92007 12.7735 1.92007H16.2975C16.3528 1.92007 16.3975 1.96488 16.3985 2.02012C16.4215 3.19998 16.8596 4.33529 17.6376 5.22546V5.22546C17.6383 5.22623 17.6391 5.22691 17.6399 5.22747C18.4277 5.74175 19.3438 6.02343 20.2831 6.04131C20.3384 6.04236 20.3832 6.08705 20.3832 6.14231V6.76849C20.3832 6.81565 20.4161 6.8565 20.4624 6.86564C20.7473 6.92193 21.04 6.9544 21.3398 6.96033C21.3951 6.96142 21.4398 7.00608 21.4398 7.06131V10.4862C21.4398 10.5414 21.3951 10.5862 21.3399 10.5857C19.6307 10.5679 17.9661 10.0422 16.5573 9.07679C16.4901 9.03073 16.3976 9.07828 16.3976 9.15977V16.3298C16.3976 20.0075 13.4051 23 9.72686 23C8.81088 23.0002 7.90471 22.8113 7.06513 22.4449C6.22666 22.0791 5.47275 21.5443 4.85038 20.8738C4.84962 20.873 4.84879 20.8723 4.84788 20.8716V20.8716C3.12766 19.6639 2 17.6665 2 15.4102C2 11.7319 4.99249 8.73896 8.67072 8.73896C8.94257 8.74024 9.21402 8.75826 9.48359 8.79284C9.533 8.79918 9.56965 8.84148 9.56965 8.89129V9.59986C9.56965 9.63428 9.59791 9.66184 9.6323 9.66071V9.66071C9.66365 9.65961 9.6951 9.65851 9.72686 9.65851C9.99867 9.6598 10.2701 9.67781 10.5397 9.7124C10.5891 9.71873 10.6257 9.76103 10.6257 9.81085V13.2878C10.6257 13.3553 10.5602 13.4034 10.495 13.3859C10.2498 13.3202 9.99304 13.2828 9.72686 13.2828C8.91909 13.2838 8.14469 13.6051 7.57356 14.1764C7.00243 14.7476 6.68123 15.522 6.68045 16.3297C6.6805 16.9674 6.88193 17.5888 7.25606 18.1053C7.2564 18.1058 7.25685 18.1062 7.25736 18.1064V18.1064ZM3.49613 18.7099C3.80572 19.5165 4.26774 20.2482 4.84641 20.8701C4.25596 20.2382 3.80004 19.5034 3.49613 18.7099Z" stroke="#BCBCBC" stroke-width="2"/>
</svg>
