<svg width="400" height="200" viewBox="0 0 400 200" fill="none" xmlns="http://www.w3.org/2000/svg">
<path d="M198.28 85.8116C190.075 85.8116 184.344 91.7729 184.344 100.308C184.344 108.578 190.336 114.814 198.28 114.814C206.19 114.814 212.155 108.578 212.155 100.308C212.155 91.7729 206.449 85.8116 198.28 85.8116ZM198.28 110.388C192.576 110.388 189.977 105.163 189.977 100.308C189.977 95.427 192.887 90.2375 198.28 90.2375C203.634 90.2375 206.523 95.427 206.523 100.308C206.523 105.162 203.983 110.388 198.28 110.388Z" fill="#E8E8E8"/>
<path d="M246.234 85.7686C238.21 85.7686 233.098 91.8558 233.098 99.9475C233.098 108.841 238.263 114.853 247.809 114.853C252.49 114.853 254.775 113.664 256.782 112.967V107.623C255.501 108.642 251.487 110.357 248.032 110.357C243.072 110.357 238.67 107.331 238.67 101.92H258.692C258.889 93.0886 255.677 85.7686 246.234 85.7686ZM238.467 97.7744C238.857 94.2379 240.973 90.1279 246.101 90.1279C250.614 90.1279 253.178 93.5955 253.178 97.7744H238.467Z" fill="#E8E8E8"/>
<path d="M299.696 85.7686C291.672 85.7686 286.559 91.8558 286.559 99.9475C286.559 108.841 291.725 114.853 301.271 114.853C305.952 114.853 308.237 113.664 310.244 112.967V107.623C308.963 108.642 304.949 110.357 301.494 110.357C296.534 110.357 292.132 107.331 292.132 101.92H312.154C312.351 93.0886 309.139 85.7686 299.696 85.7686ZM291.928 97.7744C292.318 94.2379 294.434 90.1279 299.563 90.1279C304.075 90.1279 306.639 93.5955 306.639 97.7744H291.928Z" fill="#E8E8E8"/>
<path d="M223.52 105.656C223.52 105.656 223.52 91.6679 223.52 91.0934C224.062 91.0934 229.667 91.0934 229.667 91.0934V86.4474C229.667 86.4474 224.062 86.4474 223.52 86.4474C223.52 85.8931 223.52 79.3068 223.52 79.3068L217.992 81.3975C217.992 81.3975 217.992 85.9048 217.992 86.4469C217.458 86.4469 213.653 86.4469 213.653 86.4469V91.093C213.653 91.093 217.458 91.093 217.992 91.093C217.992 91.6683 217.992 106.667 217.992 106.667C217.992 112.021 220.946 114.852 226.535 114.852C228.207 114.852 230.017 114.361 231.032 114.019V108.999C229.684 109.96 228.572 110.204 227.376 110.204C225.456 110.205 223.518 108.799 223.52 105.656Z" fill="#E8E8E8"/>
<path d="M327.791 110.205C325.871 110.205 323.933 108.799 323.935 105.656C323.935 105.656 323.935 91.6679 323.935 91.0934C324.477 91.0934 330.082 91.0934 330.082 91.0934V86.4474C330.082 86.4474 324.477 86.4474 323.935 86.4474C323.935 85.8931 323.935 79.3068 323.935 79.3068L318.406 81.3975C318.406 81.3975 318.406 85.9048 318.406 86.4469C317.873 86.4469 314.067 86.4469 314.067 86.4469V91.093C314.067 91.093 317.872 91.093 318.406 91.093C318.406 91.6683 318.406 106.667 318.406 106.667C318.406 112.021 321.36 114.852 326.95 114.852C328.622 114.852 330.432 114.361 331.447 114.019V108.999C330.098 109.961 328.987 110.205 327.791 110.205Z" fill="#E8E8E8"/>
<path d="M169.008 85.7957C164.74 85.7957 161.71 87.7776 160.11 89.8163C160.11 88.8469 160.11 86.4334 160.11 86.4334H154.792V123.885H160.32C160.32 123.885 160.32 112.361 160.32 110.956C162.181 113.522 165.108 114.837 169.062 114.837C177.772 114.837 180.863 106.755 180.863 99.8341C180.863 93.3584 177.757 85.7957 169.008 85.7957ZM167.906 110.492C162.337 110.492 160.026 104.894 160.026 100.366C160.026 95.3076 162.6 90.1414 167.959 90.1414C173.318 90.1414 175.419 95.3071 175.314 100.207C175.419 104.468 173.212 110.492 167.906 110.492Z" fill="#E8E8E8"/>
<path d="M149.864 97.3321C149.864 89.4602 146.349 85.7957 138.8 85.7957C135.523 85.7957 132.523 86.7633 129.668 88.487L129.978 93.5219C132.025 91.6651 134.934 90.4408 138.012 90.4408C142.398 90.4408 144.234 92.3351 144.32 96.9109C142.543 96.8237 141.19 96.8195 139.378 96.8195C134.645 96.8195 126.632 98.7668 126.632 106.068C126.632 111.724 130.225 114.838 136.751 114.838C141.118 114.838 143.681 112.56 144.861 111.125C144.861 112.047 144.861 114.201 144.861 114.201H150.117C149.896 112.558 149.864 111.138 149.864 108.575V97.3321ZM144.631 103.349C144.631 107.402 142.058 110.492 137.171 110.492C134.912 110.492 132.181 108.948 132.181 106.068C132.181 101.271 138.8 100.845 141.479 100.845C142.53 100.845 143.58 100.952 144.631 100.952V103.349H144.631Z" fill="#E8E8E8"/>
<path d="M286.124 86.4339H279.017C279.017 86.4339 269.583 96.091 268.666 97.0304C268.666 95.6632 268.666 76.2525 268.666 76.2525H263.137V114.201H268.666C268.666 114.201 268.666 102.161 268.666 100.74C269.614 101.845 280.216 114.201 280.216 114.201H287.644C287.644 114.201 274.22 99.2021 273.828 98.7799C274.24 98.3849 286.124 86.4339 286.124 86.4339Z" fill="#E8E8E8"/>
<path fill-rule="evenodd" clip-rule="evenodd" d="M68 100C68 86.1928 79.8032 75 93.5509 75H118.18V125H93.5509C79.8032 125 68 113.807 68 100ZM110.482 99.4707L113.084 104.7H107.392C106.93 112.119 100.791 117.994 93.2869 117.994C85.4815 117.994 79.1544 111.639 79.1544 103.8C79.1544 102.29 79.3891 100.835 79.8241 99.4707H102.148V89.3024C102.148 87.5758 100.754 86.176 99.0349 86.176C97.3158 86.176 95.922 87.5758 95.922 89.3024V93.1718L90.6508 95.8188V89.3677C90.6508 84.7174 94.4046 80.9474 99.0349 80.9474C103.665 80.9474 107.419 84.7174 107.419 89.3677V99.4707H110.482ZM84.4706 104.699C84.9163 109.228 88.6933 112.765 93.2864 112.765C97.88 112.765 101.657 109.228 102.103 104.699H84.4706Z" fill="#E8E8E8"/>
</svg>
