<svg width="400" height="200" viewBox="0 0 400 200" fill="none" xmlns="http://www.w3.org/2000/svg">
<path d="M122 61H153.031V67.9427H122V61ZM122 69.935H153.031V76.8777H122V69.935ZM126.588 78.87H147.598V85.692H126.588V78.87V78.87ZM126.588 87.6239H147.598V94.4459H126.588V87.6239V87.6239ZM126.588 96.4381H147.598V103.321H126.588V96.4381V96.4381ZM126.588 105.252H147.598V112.074H126.588V105.252V105.252ZM126.588 114.006H147.598V120.828H126.588V114.006V114.006ZM122 122.821H153.031V129.643H122V122.821ZM122 131.454H153.031V138.276H122V131.454ZM213.161 61H277.819V67.9427H213.161V61ZM213.101 69.935H277.879V76.8777H213.101V69.935ZM234.955 78.87H255.904V85.692H234.955V78.87ZM263.632 78.87H278V84.4846H263.632V78.87ZM212.92 78.87H227.348V84.4846H212.92V78.87ZM234.955 87.6239H255.904V94.4459H234.955V87.6239ZM234.955 96.4381H255.904V103.321H234.955V96.4381ZM234.955 105.252H255.904V112.074H234.955V105.252ZM234.955 114.006H255.904V120.828H234.955V114.006ZM230.065 122.821H261.036V129.643H230.065V122.821ZM230.065 131.454H261.036V138.276H230.065V131.454ZM191.186 78.87H209.659V84.726H191.186V78.87ZM160.517 114.67H180.198V120.526H160.517V114.67ZM209.599 67.9427H160.759C160.759 67.9427 164.562 61 174.402 61H209.539V67.9427H209.599ZM209.599 76.8777H159.008V71.9876C159.008 71.3839 159.672 70.2972 159.974 69.935H209.599V76.8777V76.8777ZM160.517 131.273H210.867C210.867 131.273 206.943 138.215 196.8 138.215H160.517V131.273ZM160.517 122.338H212.074V128.375C211.833 128.978 211.833 128.918 211.591 129.28H160.517V122.338ZM159.068 78.87H179.776V85.692H159.068V78.87V78.87ZM163.717 103.321H212.255C212.255 103.321 211.108 98.9134 208.573 96.4381H159.43C159.491 96.4381 160.698 100.604 163.717 103.321ZM206.46 94.5666C206.46 94.5666 203.864 92.6951 200.724 91.7895H179.715V87.6843H159.008V94.5666H206.46ZM191.125 113.765H212.135V120.587H191.125V113.765ZM212.135 105.313V104.89H165.769C165.769 104.89 167.762 106.46 170.841 107.245H191.125V111.712H212.195V105.313" fill="#E8E8E8"/>
</svg>
