<svg width="400" height="200" viewBox="0 0 400 200" fill="none" xmlns="http://www.w3.org/2000/svg">
<path d="M277.509 103.074C277.509 108.174 274.489 109.244 271.959 109.244C269.429 109.244 266.409 108.174 266.409 103.074V88.4238H258.839V103.974C258.839 111.514 263.859 116.224 271.969 116.284C280.059 116.224 285.089 111.514 285.089 103.974V88.4238H277.509V103.074Z" fill="#E8E8E8"/>
<path d="M308.119 88.024L307.409 87.864C306.489 87.664 304.889 87.644 304.699 87.644C294.669 87.644 289.789 92.144 289.789 101.394L289.779 115.394H297.299V106.354C297.299 105.934 297.299 105.514 297.289 105.104C297.249 98.614 297.519 94.944 303.719 94.754C304.299 94.734 306.009 94.7641 306.919 95.0741L308.109 95.484V88.024H308.119Z" fill="#E8E8E8"/>
<path d="M209.219 87.6541C199.189 87.6541 194.309 92.154 194.309 101.404L194.299 115.404H201.819V106.364C201.819 105.944 201.819 105.524 201.809 105.114C201.769 98.6241 202.039 94.954 208.239 94.764C208.829 94.744 210.529 94.7741 211.439 95.0841L212.639 95.4941V88.034L211.929 87.8741C211.009 87.6741 209.409 87.6541 209.219 87.6541Z" fill="#E8E8E8"/>
<path d="M224.929 88.064H217.399V115.404H224.929V88.064Z" fill="#E8E8E8"/>
<path d="M158.749 88.064H150.999L150.909 88.864C150.899 88.954 149.849 97.574 143.659 105.734C137.489 97.584 136.419 88.954 136.409 88.864L136.319 88.064H128.579L128.649 89.034C128.699 89.674 129.979 104.874 143.079 115.714L143.649 116.184L144.219 115.714C157.339 104.874 158.619 89.674 158.659 89.034L158.749 88.064Z" fill="#E8E8E8"/>
<path d="M245.599 98.594L241.109 97.864C239.099 97.564 238.099 96.644 238.149 95.894C238.219 94.944 239.919 94.024 242.349 94.174L242.429 94.184C244.519 94.334 246.209 94.754 247.449 95.444L247.979 95.744L253.599 91.154L252.639 90.464C250.349 88.824 247.289 87.924 242.989 87.624L242.849 87.614C236.849 87.244 230.559 89.944 230.139 95.804C229.909 99.074 231.269 103.234 239.059 104.474L243.539 105.194C245.509 105.514 246.729 106.344 246.649 107.324C246.539 108.894 243.369 109.294 241.379 109.184L241.259 109.174C238.769 109.004 236.819 108.394 235.289 107.294L234.729 106.894L228.909 111.674L229.749 112.374C232.819 114.914 236.339 115.644 240.689 115.944L240.889 115.954C241.379 115.984 241.869 116.004 242.349 116.004C245.139 116.004 247.729 115.504 249.759 114.554C252.809 113.124 254.539 110.744 254.759 107.654C255.079 102.954 251.659 99.574 245.599 98.594Z" fill="#E8E8E8"/>
<path d="M332.639 105.544L332.519 105.824C331.729 107.724 328.869 109.114 325.719 109.114C320.949 108.914 319.549 105.724 319.069 103.824H339.949V103.104C339.949 92.994 334.679 87.1439 325.479 87.0439H325.469C315.499 87.0439 311.039 94.2639 311.039 101.424C311.039 110.114 316.999 115.944 325.879 115.944C333.479 115.944 337.039 111.614 338.329 109.484L332.639 105.544ZM325.699 93.1439C329.029 93.1439 331.399 95.0939 331.909 98.2539H319.419C319.859 95.4539 322.709 93.1439 325.699 93.1439Z" fill="#E8E8E8"/>
<path d="M182.899 105.544L182.779 105.824C181.989 107.724 179.129 109.114 175.979 109.114C171.209 108.914 169.809 105.724 169.329 103.824H190.209V103.104C190.209 92.994 184.939 87.1439 175.739 87.0439H175.729C165.759 87.0439 161.299 94.2639 161.299 101.424C161.299 110.114 167.259 115.944 176.139 115.944C183.739 115.944 187.299 111.614 188.589 109.484L182.899 105.544ZM175.959 93.1439C179.289 93.1439 181.659 95.0939 182.169 98.2539H169.679C170.119 95.4539 172.969 93.1439 175.959 93.1439Z" fill="#E8E8E8"/>
<path fill-rule="evenodd" clip-rule="evenodd" d="M64.1091 117.484C62.5091 126.554 71.8891 133.504 79.8591 129.144C84.4691 126.624 90.2991 126.374 95.3791 129.154C103.349 133.514 112.729 126.564 111.129 117.494C110.379 113.264 110.709 107.284 115.849 102.374C122.449 96.064 118.879 84.804 109.919 83.554C104.459 82.784 99.7391 79.294 97.3391 74.234C93.3391 65.774 81.7591 66.074 77.8891 74.234C75.4991 79.294 70.7791 82.794 65.3191 83.554C56.3591 84.804 52.7791 95.904 59.3091 102.284C64.1291 106.994 64.8491 113.254 64.1091 117.484ZM103 100.5C103 109.06 96.0604 116 87.5 116C78.9396 116 72 109.06 72 100.5C72 91.9396 78.9396 85 87.5 85C96.0604 85 103 91.9396 103 100.5ZM104 100.5C104 109.613 96.6127 117 87.5 117C78.3873 117 71 109.613 71 100.5C71 91.3873 78.3873 84 87.5 84C96.6127 84 104 91.3873 104 100.5Z" fill="#E8E8E8"/>
</svg>
