<svg width="400" height="200" viewBox="0 0 400 200" fill="none" xmlns="http://www.w3.org/2000/svg">
<path d="M310.501 75.2L296.702 124.8H307.9L313.848 101.116C314.375 98.9727 314.766 96.7983 315.018 94.606C315.36 96.7583 315.821 98.8902 316.399 100.992L322.371 124.8H333.818L319.422 75.2H310.501ZM180.64 75.2L174.642 98.884C174.09 101.026 173.675 103.2 173.398 105.394C173.063 103.24 172.602 101.108 172.017 99.008L166.144 75.2H154.71L169.093 124.8H178.027L191.813 75.2H180.64ZM198.333 75.2V124.8H209.046V75.2H198.333ZM272.676 75.2L269.055 101.984L264.651 75.2H250.827L246.472 124.8H257.919L259.164 93.8L260.259 101.104L265.086 124.8H273.547L277.765 101.314L278.86 92.8824L281 124.8H291.974L286.761 75.2H272.676ZM232.189 95.6724C229.7 91.4936 227 86.732 229.563 80.5568C230.344 78.4555 231.681 76.6043 233.433 75.2H220.791C220.791 75.2 219.933 76.7996 219.547 77.68C215.453 87.6 219.311 94.7548 223.056 101.724C226.154 107.514 229.377 113.504 226.652 120.051C225.847 121.905 224.6 123.536 223.018 124.8H235.747C235.747 124.8 236.406 123.56 236.68 122.853C240.649 113.33 238.547 106.634 233.234 97.5696C232.972 96.9124 232.537 96.28 232.189 95.6724Z" fill="#E8E8E8"/>
<path d="M93.6176 75.2L118.652 113.553L72.3286 79.4408C64.2411 85.0828 63.9922 95.3003 72.9383 105.481C84.6341 118.848 107.628 127.144 124.288 124.081C140.948 121.018 144.992 107.601 133.284 94.2464C124.164 83.7932 108.138 76.44 93.6176 75.2Z" fill="#E8E8E8"/>
</svg>
